<svg xmlns="http://www.w3.org/2000/svg" id="Ebene_2" data-name="Ebene 2" viewBox="0 0 346.31 461.38"><defs><style>      .cls-1 {        fill: #008eb4;      }      .cls-2 {        fill: #71c8dd;      }      .cls-3 {        fill: #075471;      }    </style></defs><g id="Ebene_1-2" data-name="Ebene 1"><g><polygon class="cls-2" points="345.96 173.06 346.04 173.02 346.04 57.77 230.89 115.35 230.79 115.3 230.69 115.35 230.69 115.7 230.96 115.57 345.96 173.06"></polygon><polygon class="cls-1" points="230.84 346.16 230.69 346.09 230.69 461.38 346.04 403.71 346.04 288.37 230.84 345.97 230.84 346.16"></polygon><polygon class="cls-2" points="230.84 345.97 230.84 230.85 115.62 173.24 115.65 173.22 115.49 173.14 115.49 288.49 230.69 346.09 230.84 346.16 230.84 345.97"></polygon><polygon class="cls-2" points="0 346.23 115.35 403.91 115.35 288.56 0 230.89 0 346.23"></polygon><polygon class="cls-1" points=".02 230.61 115.36 172.94 115.36 57.6 .02 115.27 .02 230.61"></polygon><polygon class="cls-3" points="346.04 57.77 346.23 57.67 230.89 0 115.54 57.67 230.79 115.3 230.89 115.35 346.04 57.77"></polygon><polygon class="cls-3" points="230.84 230.85 230.96 230.91 346.31 173.24 345.96 173.06 230.96 115.57 230.69 115.7 115.65 173.22 115.62 173.24 230.84 230.85"></polygon></g></g></svg>